<svg width="44" height="38" viewBox="0 0 44 38" fill="none" xmlns="http://www.w3.org/2000/svg">
<path fill-rule="evenodd" clip-rule="evenodd" d="M43.3844 0.495766C43.5415 0.652521 43.6662 0.838738 43.7513 1.04375C43.8363 1.24877 43.8801 1.46855 43.8801 1.69052C43.8801 1.91248 43.8363 2.13227 43.7513 2.33728C43.6662 2.5423 43.5415 2.72851 43.3844 2.88527L23.1344 23.1353C22.9776 23.2924 22.7914 23.4171 22.5864 23.5022C22.3814 23.5872 22.1616 23.631 21.9396 23.631C21.7176 23.631 21.4979 23.5872 21.2928 23.5022C21.0878 23.4171 20.9016 23.2924 20.7449 23.1353L0.494861 2.88527C0.177994 2.5684 -1.9167e-05 2.13863 -1.91474e-05 1.69051C-1.91278e-05 1.2424 0.177994 0.812632 0.494862 0.495764C0.811729 0.178897 1.24149 0.000883265 1.68961 0.000883285C2.13773 0.000883304 2.56749 0.178897 2.88436 0.495765L21.9396 19.5544L40.9949 0.495766C41.1516 0.338615 41.3378 0.213934 41.5428 0.128862C41.7479 0.04379 41.9676 -8.35972e-08 42.1896 -7.38948e-08C42.4116 -6.41925e-08 42.6314 0.0437901 42.8364 0.128862C43.0414 0.213934 43.2276 0.338615 43.3844 0.495766Z" fill="#0000C8"/>
<path fill-rule="evenodd" clip-rule="evenodd" d="M43.3844 13.9958C43.5415 14.1525 43.6662 14.3387 43.7513 14.5438C43.8363 14.7488 43.8801 14.9686 43.8801 15.1905C43.8801 15.4125 43.8363 15.6323 43.7513 15.8373C43.6662 16.0423 43.5415 16.2285 43.3844 16.3853L23.1344 36.6353C22.9776 36.7924 22.7914 36.9171 22.5864 37.0022C22.3814 37.0872 22.1616 37.131 21.9396 37.131C21.7176 37.131 21.4979 37.0872 21.2928 37.0022C21.0878 36.9171 20.9016 36.7924 20.7449 36.6353L0.494861 16.3853C0.177994 16.0684 -1.9167e-05 15.6386 -1.91474e-05 15.1905C-1.91278e-05 14.7424 0.177994 14.3126 0.494862 13.9958C0.811729 13.6789 1.24149 13.5009 1.68961 13.5009C2.13773 13.5009 2.56749 13.6789 2.88436 13.9958L21.9396 33.0544L40.9949 13.9958C41.1516 13.8386 41.3378 13.7139 41.5428 13.6289C41.7479 13.5438 41.9676 13.5 42.1896 13.5C42.4116 13.5 42.6314 13.5438 42.8364 13.6289C43.0414 13.7139 43.2276 13.8386 43.3844 13.9958Z" fill="#0000C8"/>
</svg>
